<mxfile host="app.diagrams.net" agent="Mozilla/5.0 (Windows NT 10.0; Win64; x64) AppleWebKit/537.36 (KHTML, like Gecko) Chrome/126.0.0.0 Safari/537.36" version="26.2.13">
  <diagram name="Page-1" id="13e1069c-82ec-6db2-03f1-153e76fe0fe0">
    <mxGraphModel dx="1361" dy="740" grid="0" gridSize="10" guides="1" tooltips="1" connect="1" arrows="1" fold="1" page="1" pageScale="1" pageWidth="1100" pageHeight="850" background="none" math="0" shadow="0">
      <root>
        <mxCell id="0" />
        <mxCell id="1" parent="0" />
        <mxCell id="Ww4k8PjGt3EXnBUToz8T-38" value="" style="rounded=0;whiteSpace=wrap;html=1;movable=1;resizable=1;rotatable=1;deletable=1;editable=1;locked=0;connectable=1;" vertex="1" parent="1">
          <mxGeometry x="545" y="370" width="310" height="150" as="geometry" />
        </mxCell>
        <mxCell id="Ww4k8PjGt3EXnBUToz8T-5" value="" style="html=1;points=[];perimeter=orthogonalPerimeter;rounded=0;shadow=0;comic=0;labelBackgroundColor=none;strokeWidth=1;fontFamily=Verdana;fontSize=12;align=center;" vertex="1" parent="1">
          <mxGeometry x="210" y="240" width="10" height="480" as="geometry" />
        </mxCell>
        <mxCell id="Ww4k8PjGt3EXnBUToz8T-9" value="" style="html=1;verticalAlign=bottom;endArrow=block;entryX=0.033;entryY=0.02;labelBackgroundColor=none;fontFamily=Verdana;fontSize=12;edgeStyle=elbowEdgeStyle;elbow=vertical;entryDx=0;entryDy=0;entryPerimeter=0;" edge="1" parent="1">
          <mxGeometry x="0.0625" y="9" relative="1" as="geometry">
            <mxPoint x="224" y="240" as="sourcePoint" />
            <mxPoint x="414.3299999999999" y="241" as="targetPoint" />
            <mxPoint as="offset" />
          </mxGeometry>
        </mxCell>
        <mxCell id="Ww4k8PjGt3EXnBUToz8T-11" value="打开智能体" style="edgeLabel;html=1;align=center;verticalAlign=middle;resizable=0;points=[];" vertex="1" connectable="0" parent="Ww4k8PjGt3EXnBUToz8T-9">
          <mxGeometry x="-0.0786" y="1" relative="1" as="geometry">
            <mxPoint as="offset" />
          </mxGeometry>
        </mxCell>
        <mxCell id="Ww4k8PjGt3EXnBUToz8T-17" value="服务端" style="shape=umlLifeline;perimeter=lifelinePerimeter;whiteSpace=wrap;html=1;container=1;collapsible=0;recursiveResize=0;outlineConnect=0;rounded=1;shadow=0;comic=0;labelBackgroundColor=none;strokeWidth=1;fontFamily=Verdana;fontSize=12;align=center;" vertex="1" parent="1">
          <mxGeometry x="574" y="140" width="100" height="580" as="geometry" />
        </mxCell>
        <mxCell id="Ww4k8PjGt3EXnBUToz8T-18" value="" style="html=1;points=[];perimeter=orthogonalPerimeter;rounded=0;shadow=0;comic=0;labelBackgroundColor=none;strokeWidth=1;fontFamily=Verdana;fontSize=12;align=center;" vertex="1" parent="Ww4k8PjGt3EXnBUToz8T-17">
          <mxGeometry x="45" y="140" width="10" height="360" as="geometry" />
        </mxCell>
        <mxCell id="Ww4k8PjGt3EXnBUToz8T-23" value="" style="html=1;verticalAlign=bottom;endArrow=block;labelBackgroundColor=none;fontFamily=Verdana;fontSize=12;edgeStyle=elbowEdgeStyle;elbow=vertical;" edge="1" parent="Ww4k8PjGt3EXnBUToz8T-17">
          <mxGeometry x="0.0625" y="9" relative="1" as="geometry">
            <mxPoint x="-145" y="140" as="sourcePoint" />
            <mxPoint x="45" y="140" as="targetPoint" />
            <mxPoint as="offset" />
          </mxGeometry>
        </mxCell>
        <mxCell id="Ww4k8PjGt3EXnBUToz8T-24" value="查询接口" style="edgeLabel;html=1;align=center;verticalAlign=middle;resizable=0;points=[];" vertex="1" connectable="0" parent="Ww4k8PjGt3EXnBUToz8T-23">
          <mxGeometry x="-0.0786" y="1" relative="1" as="geometry">
            <mxPoint as="offset" />
          </mxGeometry>
        </mxCell>
        <mxCell id="Ww4k8PjGt3EXnBUToz8T-47" value="&lt;span style=&quot;font-size: 10px;&quot;&gt;会话id不存在&lt;/span&gt;" style="text;html=1;align=center;verticalAlign=middle;whiteSpace=wrap;rounded=0;" vertex="1" parent="Ww4k8PjGt3EXnBUToz8T-17">
          <mxGeometry x="-23" y="334" width="67" height="25" as="geometry" />
        </mxCell>
        <mxCell id="Ww4k8PjGt3EXnBUToz8T-19" value="Actor" style="shape=umlActor;verticalLabelPosition=bottom;verticalAlign=top;html=1;" vertex="1" parent="1">
          <mxGeometry x="200" y="140" width="30" height="60" as="geometry" />
        </mxCell>
        <mxCell id="Ww4k8PjGt3EXnBUToz8T-20" value="前端" style="shape=umlLifeline;perimeter=lifelinePerimeter;whiteSpace=wrap;html=1;container=1;collapsible=0;recursiveResize=0;outlineConnect=0;rounded=1;shadow=0;comic=0;labelBackgroundColor=none;strokeWidth=1;fontFamily=Verdana;fontSize=12;align=center;movable=1;resizable=1;rotatable=1;deletable=1;editable=1;locked=0;connectable=1;" vertex="1" parent="1">
          <mxGeometry x="375" y="140" width="100" height="580" as="geometry" />
        </mxCell>
        <mxCell id="Ww4k8PjGt3EXnBUToz8T-21" value="" style="html=1;points=[];perimeter=orthogonalPerimeter;rounded=0;shadow=0;comic=0;labelBackgroundColor=none;strokeWidth=1;fontFamily=Verdana;fontSize=12;align=center;" vertex="1" parent="Ww4k8PjGt3EXnBUToz8T-20">
          <mxGeometry x="45" y="100" width="10" height="440" as="geometry" />
        </mxCell>
        <mxCell id="Ww4k8PjGt3EXnBUToz8T-65" value="agent信息" style="html=1;verticalAlign=bottom;endArrow=open;dashed=1;endSize=8;labelBackgroundColor=none;fontFamily=Verdana;fontSize=12;" edge="1" parent="Ww4k8PjGt3EXnBUToz8T-20">
          <mxGeometry x="0.4388" relative="1" as="geometry">
            <mxPoint x="55" y="380.28999999999996" as="targetPoint" />
            <mxPoint x="251" y="380" as="sourcePoint" />
            <mxPoint as="offset" />
          </mxGeometry>
        </mxCell>
        <mxCell id="Ww4k8PjGt3EXnBUToz8T-25" value="数据库" style="shape=umlLifeline;perimeter=lifelinePerimeter;whiteSpace=wrap;html=1;container=1;collapsible=0;recursiveResize=0;outlineConnect=0;rounded=1;shadow=0;comic=0;labelBackgroundColor=none;strokeWidth=1;fontFamily=Verdana;fontSize=12;align=center;" vertex="1" parent="1">
          <mxGeometry x="775" y="140" width="100" height="580" as="geometry" />
        </mxCell>
        <mxCell id="Ww4k8PjGt3EXnBUToz8T-26" value="" style="html=1;points=[];perimeter=orthogonalPerimeter;rounded=0;shadow=0;comic=0;labelBackgroundColor=none;strokeWidth=1;fontFamily=Verdana;fontSize=12;align=center;" vertex="1" parent="Ww4k8PjGt3EXnBUToz8T-25">
          <mxGeometry x="45" y="180" width="10" height="40" as="geometry" />
        </mxCell>
        <mxCell id="Ww4k8PjGt3EXnBUToz8T-35" value="" style="html=1;verticalAlign=bottom;endArrow=block;labelBackgroundColor=none;fontFamily=Verdana;fontSize=12;edgeStyle=elbowEdgeStyle;elbow=vertical;" edge="1" parent="Ww4k8PjGt3EXnBUToz8T-25">
          <mxGeometry x="0.0625" y="9" relative="1" as="geometry">
            <mxPoint x="-145" y="180" as="sourcePoint" />
            <mxPoint x="45" y="180" as="targetPoint" />
            <mxPoint as="offset" />
          </mxGeometry>
        </mxCell>
        <mxCell id="Ww4k8PjGt3EXnBUToz8T-36" value="查询数据库是否有会话ID" style="edgeLabel;html=1;align=center;verticalAlign=middle;resizable=0;points=[];" vertex="1" connectable="0" parent="Ww4k8PjGt3EXnBUToz8T-35">
          <mxGeometry x="-0.0786" y="1" relative="1" as="geometry">
            <mxPoint as="offset" />
          </mxGeometry>
        </mxCell>
        <mxCell id="Ww4k8PjGt3EXnBUToz8T-37" value="return" style="html=1;verticalAlign=bottom;endArrow=open;dashed=1;endSize=8;labelBackgroundColor=none;fontFamily=Verdana;fontSize=12;" edge="1" parent="Ww4k8PjGt3EXnBUToz8T-25">
          <mxGeometry relative="1" as="geometry">
            <mxPoint x="-145" y="220" as="targetPoint" />
            <mxPoint x="45" y="220" as="sourcePoint" />
          </mxGeometry>
        </mxCell>
        <mxCell id="Ww4k8PjGt3EXnBUToz8T-63" value="" style="html=1;points=[];perimeter=orthogonalPerimeter;rounded=0;shadow=0;comic=0;labelBackgroundColor=none;strokeWidth=1;fontFamily=Verdana;fontSize=12;align=center;" vertex="1" parent="Ww4k8PjGt3EXnBUToz8T-25">
          <mxGeometry x="45" y="420" width="10" height="40" as="geometry" />
        </mxCell>
        <mxCell id="Ww4k8PjGt3EXnBUToz8T-40" value="alt" style="rounded=0;whiteSpace=wrap;html=1;movable=1;resizable=1;rotatable=1;deletable=1;editable=1;locked=0;connectable=1;" vertex="1" parent="1">
          <mxGeometry x="545" y="370" width="50" height="30" as="geometry" />
        </mxCell>
        <mxCell id="Ww4k8PjGt3EXnBUToz8T-42" value="" style="endArrow=none;dashed=1;html=1;dashPattern=1 3;strokeWidth=2;rounded=0;movable=1;resizable=1;rotatable=1;deletable=1;editable=1;locked=0;connectable=1;" edge="1" parent="1">
          <mxGeometry width="50" height="50" relative="1" as="geometry">
            <mxPoint x="545" y="456" as="sourcePoint" />
            <mxPoint x="857" y="456" as="targetPoint" />
          </mxGeometry>
        </mxCell>
        <mxCell id="Ww4k8PjGt3EXnBUToz8T-43" value="" style="html=1;points=[];perimeter=orthogonalPerimeter;rounded=0;shadow=0;comic=0;labelBackgroundColor=none;strokeWidth=1;fontFamily=Verdana;fontSize=12;align=center;" vertex="1" parent="1">
          <mxGeometry x="820" y="390" width="10" height="40" as="geometry" />
        </mxCell>
        <mxCell id="Ww4k8PjGt3EXnBUToz8T-45" value="" style="html=1;points=[];perimeter=orthogonalPerimeter;rounded=0;shadow=0;comic=0;labelBackgroundColor=none;strokeWidth=1;fontFamily=Verdana;fontSize=12;align=center;" vertex="1" parent="1">
          <mxGeometry x="820" y="470" width="10" height="40" as="geometry" />
        </mxCell>
        <mxCell id="Ww4k8PjGt3EXnBUToz8T-46" value="&lt;font style=&quot;font-size: 10px;&quot;&gt;会话id存在&lt;/font&gt;" style="text;html=1;align=center;verticalAlign=middle;whiteSpace=wrap;rounded=0;" vertex="1" parent="1">
          <mxGeometry x="559" y="417.5" width="50" height="25" as="geometry" />
        </mxCell>
        <mxCell id="Ww4k8PjGt3EXnBUToz8T-50" value="" style="html=1;verticalAlign=bottom;endArrow=block;labelBackgroundColor=none;fontFamily=Verdana;fontSize=12;edgeStyle=elbowEdgeStyle;elbow=vertical;" edge="1" parent="1">
          <mxGeometry x="0.0625" y="9" relative="1" as="geometry">
            <mxPoint x="625" y="470" as="sourcePoint" />
            <mxPoint x="820" y="470" as="targetPoint" />
            <mxPoint as="offset" />
          </mxGeometry>
        </mxCell>
        <mxCell id="Ww4k8PjGt3EXnBUToz8T-51" value="创建会话id写入数据库" style="edgeLabel;html=1;align=center;verticalAlign=middle;resizable=0;points=[];" vertex="1" connectable="0" parent="Ww4k8PjGt3EXnBUToz8T-50">
          <mxGeometry x="-0.0786" y="1" relative="1" as="geometry">
            <mxPoint as="offset" />
          </mxGeometry>
        </mxCell>
        <mxCell id="Ww4k8PjGt3EXnBUToz8T-52" value="" style="html=1;verticalAlign=bottom;endArrow=block;labelBackgroundColor=none;fontFamily=Verdana;fontSize=12;edgeStyle=elbowEdgeStyle;elbow=vertical;" edge="1" parent="1">
          <mxGeometry x="0.0625" y="9" relative="1" as="geometry">
            <mxPoint x="625" y="390" as="sourcePoint" />
            <mxPoint x="820" y="390" as="targetPoint" />
            <mxPoint as="offset" />
          </mxGeometry>
        </mxCell>
        <mxCell id="Ww4k8PjGt3EXnBUToz8T-53" value="无操作" style="edgeLabel;html=1;align=center;verticalAlign=middle;resizable=0;points=[];" vertex="1" connectable="0" parent="Ww4k8PjGt3EXnBUToz8T-52">
          <mxGeometry x="-0.0786" y="1" relative="1" as="geometry">
            <mxPoint as="offset" />
          </mxGeometry>
        </mxCell>
        <mxCell id="Ww4k8PjGt3EXnBUToz8T-57" value="" style="html=1;verticalAlign=bottom;endArrow=block;labelBackgroundColor=none;fontFamily=Verdana;fontSize=12;edgeStyle=elbowEdgeStyle;elbow=horizontal;" edge="1" parent="1">
          <mxGeometry x="0.0625" y="9" relative="1" as="geometry">
            <mxPoint x="630" y="560" as="sourcePoint" />
            <mxPoint x="820" y="560" as="targetPoint" />
            <mxPoint as="offset" />
          </mxGeometry>
        </mxCell>
        <mxCell id="Ww4k8PjGt3EXnBUToz8T-60" value="基于会话id查询agent历史对话" style="edgeLabel;html=1;align=center;verticalAlign=middle;resizable=0;points=[];" vertex="1" connectable="0" parent="Ww4k8PjGt3EXnBUToz8T-57">
          <mxGeometry x="-0.1008" relative="1" as="geometry">
            <mxPoint as="offset" />
          </mxGeometry>
        </mxCell>
        <mxCell id="Ww4k8PjGt3EXnBUToz8T-55" value="会话id" style="html=1;verticalAlign=bottom;endArrow=open;dashed=1;endSize=8;labelBackgroundColor=none;fontFamily=Verdana;fontSize=12;" edge="1" parent="1" target="Ww4k8PjGt3EXnBUToz8T-18">
          <mxGeometry relative="1" as="geometry">
            <mxPoint x="715" y="429.71000000000004" as="targetPoint" />
            <mxPoint x="825" y="429.71000000000004" as="sourcePoint" />
          </mxGeometry>
        </mxCell>
        <mxCell id="Ww4k8PjGt3EXnBUToz8T-62" value="会话id" style="html=1;verticalAlign=bottom;endArrow=open;dashed=1;endSize=8;labelBackgroundColor=none;fontFamily=Verdana;fontSize=12;" edge="1" parent="1">
          <mxGeometry relative="1" as="geometry">
            <mxPoint x="630" y="510.28999999999996" as="targetPoint" />
            <mxPoint x="826" y="510" as="sourcePoint" />
          </mxGeometry>
        </mxCell>
        <mxCell id="Ww4k8PjGt3EXnBUToz8T-64" value="历史对话信息" style="html=1;verticalAlign=bottom;endArrow=open;dashed=1;endSize=8;labelBackgroundColor=none;fontFamily=Verdana;fontSize=12;" edge="1" parent="1">
          <mxGeometry relative="1" as="geometry">
            <mxPoint x="629" y="600" as="targetPoint" />
            <mxPoint x="824" y="600" as="sourcePoint" />
          </mxGeometry>
        </mxCell>
        <mxCell id="Ww4k8PjGt3EXnBUToz8T-66" value="历史对话信息" style="html=1;verticalAlign=bottom;endArrow=open;dashed=1;endSize=8;labelBackgroundColor=none;fontFamily=Verdana;fontSize=12;" edge="1" parent="1">
          <mxGeometry relative="1" as="geometry">
            <mxPoint x="431" y="640" as="targetPoint" />
            <mxPoint x="626" y="640" as="sourcePoint" />
          </mxGeometry>
        </mxCell>
        <mxCell id="Ww4k8PjGt3EXnBUToz8T-67" value="打开完成，显示智能体和对话信息" style="html=1;verticalAlign=bottom;endArrow=open;dashed=1;endSize=8;labelBackgroundColor=none;fontFamily=Verdana;fontSize=12;exitX=0.5;exitY=1;exitDx=0;exitDy=0;exitPerimeter=0;" edge="1" parent="1" source="Ww4k8PjGt3EXnBUToz8T-21">
          <mxGeometry relative="1" as="geometry">
            <mxPoint x="220" y="680" as="targetPoint" />
            <mxPoint x="415" y="680" as="sourcePoint" />
          </mxGeometry>
        </mxCell>
      </root>
    </mxGraphModel>
  </diagram>
</mxfile>
